<svg width="48" height="48" viewBox="0 0 48 48" fill="none" xmlns="http://www.w3.org/2000/svg">
<g id="Group 29">
<path id="Rectangle 9" d="M0 16C0 8.45753 0 4.68629 2.34315 2.34315C4.68629 0 8.45753 0 16 0H32C39.5425 0 43.3137 0 45.6569 2.34315C48 4.68629 48 8.45753 48 16V32C48 39.5425 48 43.3137 45.6569 45.6569C43.3137 48 39.5425 48 32 48H16C8.45753 48 4.68629 48 2.34315 45.6569C0 43.3137 0 39.5425 0 32V16Z" fill="white"/>
<g id="user">
<path id="Vector" d="M24 24.75C20.83 24.75 18.25 22.17 18.25 19C18.25 15.83 20.83 13.25 24 13.25C27.17 13.25 29.75 15.83 29.75 19C29.75 22.17 27.17 24.75 24 24.75ZM24 14.75C21.66 14.75 19.75 16.66 19.75 19C19.75 21.34 21.66 23.25 24 23.25C26.34 23.25 28.25 21.34 28.25 19C28.25 16.66 26.34 14.75 24 14.75Z" fill="#292D32"/>
<path id="Vector_2" d="M32.5901 34.75C32.1801 34.75 31.8401 34.41 31.8401 34C31.8401 30.55 28.3202 27.75 24.0002 27.75C19.6802 27.75 16.1602 30.55 16.1602 34C16.1602 34.41 15.8202 34.75 15.4102 34.75C15.0002 34.75 14.6602 34.41 14.6602 34C14.6602 29.73 18.8502 26.25 24.0002 26.25C29.1502 26.25 33.3401 29.73 33.3401 34C33.3401 34.41 33.0001 34.75 32.5901 34.75Z" fill="#292D32"/>
</g>
</g>
</svg>
