<svg width="70" height="48" viewBox="0 0 70 48" fill="none" xmlns="http://www.w3.org/2000/svg">
<g id="Group 10">
<rect id="Rectangle 7" width="70" height="48" rx="12" fill="#EA3846"/>
<g id="Mask group">
<mask id="mask0_8_917" style="mask-type:alpha" maskUnits="userSpaceOnUse" x="0" y="0" width="70" height="48">
<rect id="Rectangle 8" width="70" height="48" rx="12" fill="#EA3846"/>
</mask>
<g mask="url(#mask0_8_917)">
<g id="Group" opacity="0.1">
<path id="Vector" d="M33.2167 17.5644C32.2673 17.7172 31.3944 18.2628 30.7615 18.972C31.0343 18.8192 31.318 18.6774 31.6126 18.5574C32.3655 18.2409 33.1621 18.0336 33.9696 17.9136C34.5915 17.8372 35.2244 17.8154 35.8464 17.8699C35.2681 17.619 34.657 17.5098 34.035 17.5098C33.7622 17.488 33.4894 17.5208 33.2167 17.5644Z" fill="#323232"/>
<path id="Vector_2" d="M37.7123 18.7101C38.0287 19.0048 38.3124 19.3212 38.5743 19.6595C38.9235 20.1178 39.229 20.6088 39.4582 21.1435C39.6873 21.7109 39.851 22.2892 39.9383 22.8893C40.0146 23.4895 40.0037 24.0787 39.9274 24.6788C39.8619 25.159 39.7528 25.6391 39.6 26.0974C39.7528 25.8682 39.9164 25.6282 40.0256 25.3663C40.1783 25.0171 40.2874 24.657 40.3638 24.2751C40.4948 23.5549 40.462 22.8129 40.3202 22.1037C40.1674 21.3726 39.7964 20.6633 39.349 20.0741C38.9017 19.4958 38.3561 19.0484 37.7123 18.7101ZM38.5852 19.6595C38.5961 19.6704 38.5961 19.6813 38.607 19.6922C38.5961 19.6813 38.5852 19.6704 38.5852 19.6595ZM39.4472 21.0998C39.4472 21.1107 39.4582 21.1216 39.4582 21.1216C39.4582 21.1216 39.4582 21.1107 39.4472 21.0998ZM39.9274 24.6898C39.9274 24.7007 39.9274 24.7116 39.9274 24.7116C39.9274 24.7007 39.9274 24.6898 39.9274 24.6898Z" fill="#323232"/>
<path id="Vector_3" d="M28.721 24.7116C28.7429 25.6064 28.9938 26.4793 29.463 27.254C29.9759 28.1051 30.7833 28.7926 31.689 29.1963C32.5947 29.6001 33.5986 29.7528 34.5697 29.6219C35.0062 29.5673 35.4426 29.4691 35.8573 29.3163C36.3156 29.1527 36.7302 28.9344 37.1121 28.6398C36.6538 28.7817 36.1846 28.9017 35.7045 28.9672H35.7154C35.2244 29.0326 34.7552 29.0108 34.2751 28.9672C33.6859 28.8799 33.1185 28.7271 32.562 28.498C32.0164 28.2579 31.4926 27.9633 31.0234 27.6032C30.4887 27.1777 30.0086 26.7085 29.5831 26.1738C29.2339 25.7264 28.9393 25.2354 28.721 24.7116Z" fill="#323232"/>
<path id="Vector_4" d="M29.2448 20.7725C29.0266 21.0562 28.852 21.3835 28.732 21.7218C28.601 22.1037 28.5792 22.5293 28.6119 22.9221C28.7211 22.5402 28.852 22.1692 28.972 21.7873C29.0811 21.4599 29.1684 21.1217 29.2775 20.7943C29.2775 20.7834 29.2666 20.7616 29.2557 20.7616C29.2557 20.7616 29.2448 20.7616 29.2448 20.7725Z" fill="#323232"/>
<path id="Vector_5" d="M34.4279 15.5567C34.3951 15.5567 34.3951 15.6003 34.4279 15.6112C34.5697 15.6221 34.7116 15.633 34.8425 15.6549H34.8316C35.3444 15.7312 35.8464 15.8731 36.3483 16.015C36.8612 16.1677 37.3631 16.3423 37.8541 16.5496C38.4215 16.7897 38.978 17.0734 39.5127 17.3898C39.2072 17.0843 38.8907 16.8006 38.5307 16.5605C38.1269 16.2877 37.6905 16.0695 37.2431 15.9058C37.0248 15.8185 36.7848 15.7531 36.5556 15.6985C36.3701 15.6549 36.1628 15.6112 35.9773 15.5894C35.6827 15.5676 35.399 15.5457 35.1044 15.5457C34.8752 15.5348 34.657 15.5457 34.4279 15.5567Z" fill="#323232"/>
<path id="Vector_6" d="M40.6257 18.4374C40.9312 18.9502 41.204 19.4849 41.4332 20.0305C41.8806 21.1107 42.1315 22.2565 42.2843 23.4131C42.3934 24.3079 42.3934 25.2026 42.2843 26.0974V26.0865C42.2625 26.2392 42.2406 26.392 42.2079 26.5448C42.5353 25.8792 42.7753 25.1808 42.8953 24.4497C43.0154 23.7077 43.0154 22.9548 42.8953 22.2128C42.7753 21.4927 42.4698 20.7943 42.0988 20.1614C41.7169 19.5067 41.2259 18.9284 40.6257 18.4374ZM41.4332 20.0414C41.4441 20.0632 41.4441 20.0741 41.455 20.096C41.4441 20.0741 41.4332 20.0632 41.4332 20.0414Z" fill="#323232"/>
<path id="Vector_7" d="M40.8985 28.9781C40.5602 29.3272 40.2001 29.6546 39.8182 29.9492C39.2508 30.3857 38.6398 30.7458 37.9742 31.0295C36.8721 31.4877 35.7373 31.8151 34.5479 31.9679C34.4388 31.9788 34.3187 31.9897 34.2096 32.0115C34.2205 32.0115 34.2424 32.0115 34.2533 32.0006C33.915 32.0442 33.5767 32.077 33.2385 32.0879C33.5877 32.197 33.9368 32.2843 34.3078 32.3279C34.6679 32.3825 35.0389 32.3825 35.399 32.3607C36.1737 32.328 36.9375 32.1315 37.6468 31.8151C38.3233 31.5205 38.9453 31.0622 39.5127 30.5821C40.0583 30.1238 40.5166 29.5782 40.8985 28.9781Z" fill="#323232"/>
<path id="Vector_8" d="M26.0804 23.4458C25.7749 24.8753 26.004 26.3811 26.626 27.7014C26.9643 28.3997 27.4444 29.0217 28.0009 29.5673C28.5355 30.0801 29.1575 30.5166 29.834 30.8221C29.3212 30.3529 28.8411 29.851 28.4046 29.3054C27.8045 28.5198 27.3134 27.6468 26.9206 26.7412C26.5496 25.8464 26.2768 24.9189 26.1459 23.9587V23.9696C26.135 23.8823 26.1241 23.7841 26.1131 23.6968V23.7077C26.1022 23.6204 26.0913 23.5331 26.0804 23.4458ZM26.9315 26.7739C26.9315 26.7848 26.9424 26.7957 26.9424 26.8066C26.9424 26.7957 26.9424 26.7848 26.9315 26.7739Z" fill="#323232"/>
<path id="Vector_9" d="M29.0156 17.5317C28.9829 17.5535 28.9611 17.5644 28.9284 17.5862C28.9174 17.5862 28.9065 17.5862 28.8956 17.5862C28.5355 17.8372 28.2082 18.1318 27.9136 18.4701C27.619 18.8193 27.3898 19.2339 27.1934 19.6486C27.1825 19.6595 27.2043 19.6704 27.2043 19.6595C27.2261 19.6376 27.2479 19.6049 27.2698 19.5831C27.7935 18.9066 28.3609 18.2519 28.9284 17.619C28.9393 17.6081 28.9393 17.5971 28.9393 17.5971C28.972 17.5862 28.9938 17.5644 29.0156 17.5317Z" fill="#323232"/>
<path id="Vector_10" d="M31.8527 15.7858C31.2744 15.9495 30.7506 16.2659 30.2923 16.6478C30.8379 16.4623 31.3944 16.2877 31.9509 16.1241C32.5292 15.9386 33.0966 15.7422 33.6859 15.6112C33.5658 15.6003 33.4349 15.6003 33.3149 15.6003C32.8129 15.6003 32.3328 15.644 31.8527 15.7858Z" fill="#323232"/>
<path id="Vector_11" d="M33.4567 13.1016C33.0639 13.167 32.682 13.2652 32.3001 13.3853C31.5908 13.6144 30.9252 13.9527 30.2923 14.3455C30.7943 14.2146 31.3071 14.1163 31.82 14.0509C32.6711 13.9418 33.5331 13.9199 34.3842 13.9418C34.7988 13.9527 35.2135 13.9418 35.6281 13.9745C36.0646 14.0072 36.5011 14.0509 36.9375 14.1054C37.6141 14.1927 38.3015 14.3018 38.9562 14.4764C38.6725 14.28 38.3997 14.0836 38.0942 13.9199C37.7668 13.7344 37.4177 13.5817 37.0576 13.4507C36.2719 13.167 35.4317 13.047 34.6024 13.0143C34.5588 13.0143 34.5151 13.0143 34.4715 13.0143C34.1332 12.9924 33.795 13.047 33.4567 13.1016Z" fill="#323232"/>
<path id="Vector_12" d="M40.9422 15.6767C41.2586 16.1023 41.575 16.5169 41.9242 16.9098C42.3061 17.3353 42.7535 17.7063 43.19 18.0882C43.0045 17.5754 42.7535 17.1171 42.4043 16.7024C42.0442 16.2332 41.4877 15.9059 40.9422 15.6767C40.9531 15.6767 40.9531 15.6767 40.9422 15.6767Z" fill="#323232"/>
<path id="Vector_13" d="M44.1938 19.9432C44.2811 20.3687 44.3575 20.7943 44.412 21.2198C44.543 22.2237 44.5212 23.2276 44.3902 24.2315C44.2593 25.1371 44.0301 26.0319 43.6919 26.883C43.4518 27.4395 43.179 27.9742 42.8844 28.498C42.6007 28.9999 42.2624 29.48 41.9024 29.9383C41.3022 30.6912 40.593 31.3459 39.84 31.9351C39.469 32.2188 39.0762 32.4916 38.6725 32.7317C38.2797 32.9608 37.865 33.1682 37.4395 33.3427C36.8612 33.5828 36.2719 33.801 35.6609 33.9756C35.0171 34.1502 34.3624 34.2921 33.7077 34.3903C33.6858 34.3903 33.6531 34.4012 33.6313 34.4012C34.0568 34.5212 34.4824 34.6303 34.9189 34.6849C35.4317 34.7504 35.9446 34.7613 36.4574 34.7394C37.003 34.7176 37.5486 34.6303 38.0723 34.5103C38.6288 34.3794 39.1635 34.172 39.6873 33.9429C40.2765 33.6919 40.8221 33.4082 41.3459 33.0372C41.946 32.6226 42.4916 32.1315 42.9826 31.5969C43.4736 31.0622 43.921 30.4948 44.2811 29.8619C44.663 29.2181 44.9576 28.5198 45.1759 27.7996C45.3832 27.1013 45.4923 26.3702 45.5578 25.6391C45.6123 24.9516 45.5796 24.2642 45.4923 23.5877C45.3177 22.3001 44.8922 21.0453 44.1938 19.9432Z" fill="#323232"/>
<path id="Vector_14" d="M26.0149 30.1456C26.3641 30.9204 26.9097 31.6187 27.5535 32.1643C28.1973 32.7099 28.9829 33.059 29.7795 33.3209C29.6813 33.2445 29.5831 33.1791 29.4848 33.1027C28.8956 32.6444 28.3609 32.1425 27.7935 31.6733C27.2043 31.1713 26.6151 30.6476 26.0367 30.1347H26.0258C26.0258 30.1238 26.0149 30.1456 26.0149 30.1456Z" fill="#323232"/>
<path id="Vector_15" d="M28.1973 15.4803C27.0734 16.015 26.1022 16.8443 25.3166 17.8045C24.4873 18.8302 23.8108 20.0086 23.5271 21.3071C23.3961 21.9291 23.3307 22.5838 23.3307 23.2167C23.3307 23.8277 23.418 24.4388 23.5489 25.0389C23.6689 25.6064 23.8762 26.1519 24.0945 26.6866C24.3454 27.2758 24.6401 27.8432 24.9783 28.3888C24.8146 27.8651 24.6946 27.3304 24.6073 26.7957C24.4982 25.901 24.5091 24.9953 24.5964 24.1005C24.5964 24.1224 24.5964 24.1333 24.5855 24.1551C24.6182 23.915 24.6401 23.6641 24.6728 23.424C24.771 22.7257 24.9347 22.0382 25.1093 21.3617C25.2948 20.6415 25.5348 19.9432 25.8185 19.2557C26.2223 18.3282 26.7351 17.4662 27.3462 16.6697C27.6408 16.2987 27.9354 15.9386 28.2518 15.5894C28.2955 15.5458 28.2518 15.4803 28.2082 15.4803C28.2191 15.4694 28.2082 15.4694 28.1973 15.4803ZM27.4116 16.626C27.4116 16.6369 27.4007 16.6369 27.4007 16.6478C27.4007 16.6369 27.4007 16.626 27.4116 16.626Z" fill="#323232"/>
<path id="Vector_16" d="M35.5081 10.7992C37.1012 11.2247 38.6616 11.7485 40.1892 12.3814C41.3131 12.8615 42.4043 13.418 43.4409 14.0727C42.4807 12.9488 41.3022 12.0649 39.9601 11.4539C38.9017 10.9737 37.7341 10.7446 36.5666 10.7446C36.2065 10.7337 35.8573 10.7555 35.5081 10.7992ZM40.1129 12.3595C40.1238 12.3595 40.1347 12.3704 40.1456 12.3704C40.1347 12.3595 40.1238 12.3595 40.1129 12.3595Z" fill="#FDEBEC"/>
<path id="Vector_17" d="M45.4269 16.2332C45.7324 16.7788 46.0052 17.3353 46.2561 17.9027C46.7581 19.1139 47.1073 20.3578 47.2928 21.6563C47.4455 22.8784 47.4564 24.1114 47.3037 25.3335C47.2055 26.0646 47.0636 26.7848 46.889 27.505C46.7035 28.247 46.4526 28.9671 46.1579 29.6764C46.1252 29.7637 46.0816 29.8401 46.0488 29.9274C45.7979 30.5057 45.5251 31.0622 45.2086 31.6078C44.8813 32.1861 44.4885 32.7317 44.0847 33.2554C43.5828 33.8992 43.059 34.5212 42.4698 35.0777C43.2118 34.674 43.9101 34.2266 44.5648 33.681C45.2304 33.1245 45.8088 32.4698 46.3325 31.7824C46.8563 31.1058 47.3037 30.3857 47.6528 29.6C48.002 28.8253 48.2748 28.0178 48.4494 27.1994C48.8204 25.5409 48.7549 23.8168 48.4385 22.1582C48.2748 21.2962 48.002 20.456 47.6528 19.6595C47.3255 18.8956 46.9218 18.1755 46.4526 17.488C46.147 17.0516 45.7979 16.626 45.4269 16.2332Z" fill="#FDEBEC"/>
<path id="Vector_18" d="M28.2737 36.0161C29.1466 36.7472 30.1614 37.3146 31.2416 37.6856C31.8418 37.8929 32.4637 38.0239 33.0966 38.1003C33.3803 38.133 33.664 38.1548 33.9477 38.1766C34.1114 38.1875 34.2642 38.1985 34.4279 38.1985C34.5479 38.1985 34.6679 38.1875 34.7879 38.1766C35.9228 38.1221 37.0357 37.882 38.0942 37.4892C39.109 37.1182 40.0801 36.6163 40.9749 36.0161C40.462 36.2234 39.9383 36.4089 39.4036 36.5508C38.8362 36.7036 38.2688 36.8127 37.6904 36.9C37.2212 36.9654 36.7411 37.0091 36.2719 37.0309C35.8136 37.0527 35.3553 37.0527 34.8971 37.0527C34.8098 37.0527 34.7225 37.0418 34.6243 37.0309C34.537 37.02 34.4497 37.02 34.3733 37.0309C34.3296 37.0309 34.286 37.0309 34.2424 37.0309C34.0241 37.0309 33.795 37.02 33.5767 36.9982C33.1184 36.9654 32.6492 36.9218 32.191 36.8563C31.5472 36.769 30.9034 36.6599 30.2705 36.529C29.594 36.3762 28.9393 36.2016 28.2737 36.0161C28.2846 36.0052 28.2846 36.0052 28.2737 36.0161Z" fill="#FDEBEC"/>
<path id="Vector_19" d="M23.0033 30.8985C23.2543 31.5968 23.5925 32.2516 24.0508 32.8408C24.52 33.4409 25.1638 33.932 25.8185 34.3139C25.6221 34.0738 25.4366 33.8228 25.2402 33.5719L25.2511 33.5828C24.9128 33.1354 24.5746 32.688 24.2036 32.2625C23.8217 31.8042 23.407 31.3568 23.0033 30.8985Z" fill="#FDEBEC"/>
<path id="Vector_20" d="M23.9854 16.015C23.1997 16.8552 22.5559 17.8045 22.0322 18.8302C21.5084 19.8668 21.1156 20.9907 20.941 22.1364C20.7664 23.2712 20.7664 24.417 20.941 25.5518C21.1047 26.632 21.4757 27.6577 21.9667 28.6289C21.8903 28.2688 21.8358 27.8978 21.7921 27.5268C21.7921 27.5377 21.7921 27.5486 21.7921 27.5704C21.563 25.8355 21.5411 24.0896 21.7594 22.3547C21.9558 20.9252 22.294 19.5285 22.8505 18.1864C23.1779 17.4444 23.5598 16.7133 23.9854 16.015ZM21.7703 22.311C21.7703 22.3219 21.7703 22.3328 21.7703 22.3437C21.7594 22.3328 21.7594 22.3219 21.7703 22.311Z" fill="#FDEBEC"/>
<path id="Vector_21" d="M29.2121 11.9012C28.481 12.1304 27.7608 12.425 27.117 12.8397C26.4732 13.2543 25.9058 13.8108 25.4366 14.4109C26.0586 13.9854 26.6915 13.5816 27.3134 13.167C27.9463 12.7414 28.5574 12.2941 29.223 11.9122C29.2121 11.9122 29.2121 11.9122 29.2121 11.9012C29.223 11.9122 29.223 11.9012 29.2121 11.9012Z" fill="#FDEBEC"/>
<path id="Vector_22" d="M32.06 10.9083C31.4599 11.0174 30.8706 11.2356 30.3141 11.4757C30.8815 11.3448 31.4489 11.2356 32.0164 11.1265C32.5947 11.0174 33.1621 10.8974 33.7404 10.7883C33.6204 10.7883 33.5003 10.7773 33.3803 10.7773C32.9439 10.7883 32.5074 10.8319 32.06 10.9083Z" fill="#FDEBEC"/>
<path id="Vector_23" d="M32.2892 6.58726C31.4162 6.7182 30.5542 6.99099 29.7358 7.31834C28.9502 7.63478 28.1973 8.0276 27.4662 8.47498C28.4373 8.10399 29.4303 7.80937 30.4342 7.58023C30.9361 7.47111 31.4381 7.3729 31.94 7.2747C32.4638 7.17649 32.9875 7.07829 33.5113 7.01282C34.7443 6.84914 35.9882 6.77276 37.2322 6.76185C36.2829 6.5327 35.3008 6.42358 34.3297 6.42358C33.664 6.4345 32.9766 6.48905 32.2892 6.58726Z" fill="white"/>
<path id="Vector_24" d="M41.2913 7.73297C41.8587 8.00576 42.4152 8.30038 42.9608 8.63864C43.5391 8.99873 44.0956 9.39155 44.6303 9.79528C45.9834 10.8537 47.2273 12.0431 48.2857 13.3852C48.7877 14.0508 49.246 14.7383 49.6715 15.4585C50.108 16.1895 50.479 16.9534 50.8173 17.739C51.5811 19.5722 52.1267 21.4926 52.3994 23.4567C52.4213 23.6422 52.4431 23.8277 52.4649 24.0023C52.4649 23.9805 52.454 23.9587 52.454 23.9368C52.5086 24.3842 52.5304 24.8425 52.5413 25.3008C52.5522 25.77 52.5413 26.2392 52.5195 26.7084C52.7268 25.89 52.8577 25.0608 52.9341 24.2206C52.9669 23.8168 53.0105 23.4131 53.0214 22.9984C53.0323 22.5511 53.0323 22.1037 52.9996 21.6672C52.945 20.8052 52.8032 19.9432 52.6068 19.103C52.3995 18.2519 52.1048 17.4335 51.7447 16.6369C51.0355 15.0329 50.0425 13.5707 48.8531 12.2832C47.7074 11.0392 46.3762 9.95896 44.8922 9.15149C43.7792 8.54044 42.5462 8.07123 41.2913 7.73297ZM50.7736 17.6408C50.7845 17.6735 50.7954 17.6954 50.8063 17.7281C50.7954 17.6954 50.7845 17.6626 50.7736 17.6408Z" fill="white"/>
<path id="Vector_25" d="M52.1157 28.7271C51.7775 29.2727 51.4829 29.8292 51.2428 30.4293C51.0027 31.0186 50.8827 31.6624 50.7081 32.2734C51.1228 31.7715 51.5156 31.2477 51.7666 30.6476C52.0394 30.0474 52.1267 29.3818 52.1157 28.7271Z" fill="white"/>
<path id="Vector_26" d="M49.3551 34.4448C48.7004 35.0668 48.0566 35.6888 47.4237 36.3435C46.8126 36.9763 46.2125 37.6201 45.5687 38.2312C46.3216 37.8165 47.0418 37.3255 47.6747 36.7363C48.373 36.0925 48.9295 35.2959 49.3551 34.4448Z" fill="white"/>
<path id="Vector_27" d="M23.1997 36.7581C23.8326 37.6201 24.6073 38.3403 25.4257 39.0168C26.3096 39.7588 27.2807 40.4026 28.2955 40.9482C29.3757 41.5265 30.5106 42.0066 31.6999 42.2904C32.3219 42.4322 32.9548 42.5304 33.5986 42.585C34.1987 42.6395 34.8098 42.6504 35.4099 42.5741C35.3554 42.585 35.3117 42.585 35.2572 42.5959C35.6718 42.5631 36.0864 42.5086 36.5011 42.454C36.4465 42.4649 36.4029 42.4649 36.3483 42.4759C37.003 42.3886 37.6468 42.2685 38.2797 42.0939C38.9017 41.9303 39.5127 41.712 40.1019 41.472C40.713 41.221 41.3022 40.9373 41.8806 40.6099C42.4152 40.3153 42.9172 39.9552 43.3973 39.5842C42.0988 39.988 40.7785 40.3044 39.4363 40.5008C38.0505 40.6754 36.6429 40.7082 35.2462 40.6099C35.2572 40.6099 35.2572 40.6099 35.2681 40.6099C34.8207 40.5554 34.3624 40.5336 33.9041 40.4899C33.4458 40.4463 32.9984 40.4026 32.5511 40.3372C31.5799 40.2062 30.6197 40.0316 29.6704 39.8134C28.7538 39.5952 27.859 39.2896 26.997 38.9405C26.3096 38.6458 25.6549 38.3076 25.0111 37.9366C24.3891 37.5547 23.7999 37.1509 23.1997 36.7581Z" fill="white"/>
<path id="Vector_28" d="M19.4352 31.5423C19.6316 32.2407 19.8935 32.8954 20.2645 33.5283C20.6573 34.2048 21.2247 34.7831 21.8139 35.285C21.4538 34.6522 21.0937 34.0084 20.7009 33.3864C20.319 32.7644 19.8716 32.1643 19.4352 31.5423Z" fill="white"/>
<path id="Vector_29" d="M17.7984 24.6461C17.7439 25.3554 17.7548 26.0646 17.853 26.7739C17.9403 27.4395 18.1367 28.0942 18.4095 28.7053C18.2567 27.3522 17.9839 26.0101 17.7984 24.6461Z" fill="white"/>
<path id="Vector_30" d="M26.0586 9.27155C25.9931 9.29337 25.9058 9.31519 25.8404 9.35884C24.6182 9.91533 23.5053 10.6573 22.5014 11.5412C21.4648 12.4687 20.57 13.5817 19.8607 14.771C19.5116 15.3603 19.206 15.9822 18.9442 16.6151C18.6714 17.2589 18.4422 17.9354 18.2567 18.612C18.1694 18.9502 18.104 19.2885 18.0494 19.6377C17.9839 20.0087 17.9403 20.3687 17.9075 20.7397C17.8421 21.4054 17.8203 22.071 17.8421 22.7366C18.0058 21.9509 18.1913 21.1653 18.4422 20.3906C18.5732 19.9868 18.715 19.594 18.8678 19.2121C19.0205 18.8302 19.1733 18.4483 19.3261 18.0664C19.6971 17.2153 20.1444 16.386 20.6246 15.5894C21.1156 14.782 21.6503 14.0072 22.2286 13.2652C23.3198 11.8685 24.5528 10.5919 25.884 9.42431C25.9495 9.39157 26.004 9.3261 26.0586 9.27155Z" fill="white"/>
<path id="Vector_31" d="M35.0826 3.36833C34.4606 3.45563 33.8714 3.59748 33.2821 3.79389C33.8823 3.88118 34.4824 3.97939 35.0826 4.05577C35.8573 4.16489 36.632 4.26309 37.4068 4.3613C38.1706 4.4595 38.9235 4.53589 39.6873 4.63409C40.8876 4.79777 42.077 5.05965 43.2554 5.34335C42.0879 4.61227 40.7894 4.07759 39.4691 3.68477C38.7598 3.47745 38.0396 3.34651 37.3086 3.29195C37.0685 3.27013 36.8284 3.25922 36.5884 3.25922C36.0864 3.25922 35.5845 3.29195 35.0826 3.36833ZM35.0935 4.05577C35.1153 4.05577 35.1262 4.05577 35.148 4.06668C35.1371 4.05577 35.1153 4.05577 35.0935 4.05577ZM35.0607 3.36833C35.0717 3.36833 35.0717 3.36833 35.0826 3.36833H35.0935C35.0826 3.36833 35.0717 3.36833 35.0607 3.36833ZM35.0935 3.35742C35.1044 3.35742 35.1044 3.35742 35.1153 3.35742C35.1044 3.35742 35.0935 3.35742 35.0935 3.35742ZM35.1153 3.35742C35.1262 3.35742 35.148 3.35742 35.1589 3.34651C35.1371 3.35742 35.1262 3.35742 35.1153 3.35742Z" fill="white"/>
<path id="Vector_32" d="M46.3871 7.00189C47.1509 7.63477 47.882 8.30039 48.5803 8.99873C49.3223 9.74073 50.0425 10.5155 50.6863 11.3338C51.2319 12.054 51.7447 12.796 52.203 13.5816C52.6831 14.4 53.0869 15.2511 53.447 16.1132C53.8725 17.1498 54.2762 18.1973 54.6036 19.2666C54.9419 20.3687 55.1819 21.5035 55.3456 22.6493C55.422 23.2167 55.4656 23.795 55.4874 24.3624C55.4874 24.3733 55.4874 24.3733 55.4765 24.3842C55.4438 24.5043 55.4656 24.6243 55.4656 24.7334C55.4765 24.9516 55.4874 25.159 55.4874 25.3772C55.4984 25.7918 55.4874 26.2174 55.4765 26.632C55.4438 27.4286 55.3674 28.2142 55.2583 29.0108C55.171 29.6873 55.051 30.3638 54.92 31.0404C55.422 29.9929 55.793 28.8799 56.033 27.745C56.1531 27.1667 56.2622 26.5993 56.3386 26.0101C56.3822 25.6936 56.4149 25.3663 56.4477 25.0499C56.4586 24.908 56.4695 24.7661 56.4804 24.6243C56.4913 24.537 56.4913 24.4606 56.4695 24.3842C56.4695 24.3733 56.4695 24.3733 56.4586 24.3624C56.4913 22.6274 56.3386 20.9034 55.9676 19.2121C55.6075 17.5317 54.9637 15.9168 54.0907 14.4328C53.2396 13.0033 52.2139 11.6721 51.0682 10.4609C49.9552 9.29335 48.6785 8.23491 47.2709 7.46018C46.9763 7.29651 46.6817 7.14374 46.3871 7.00189ZM55.2583 29.0326C55.2583 29.0435 55.2583 29.0544 55.2583 29.0654C55.2474 29.0544 55.2583 29.0435 55.2583 29.0326Z" fill="white"/>
<path id="Vector_33" d="M53.9816 33.3973C53.6434 33.8338 53.3269 34.2921 53.0432 34.7613C52.7486 35.2632 52.5304 35.8088 52.2794 36.3326C52.694 35.9179 53.0869 35.4706 53.3815 34.9577C53.6761 34.4776 53.8507 33.932 53.9816 33.3973Z" fill="white"/>
<path id="Vector_34" d="M50.0971 39.0059C49.6715 39.3224 49.2678 39.6497 48.864 39.9989C48.4603 40.3481 48.0784 40.7518 47.6965 41.1228C48.1439 40.8609 48.5803 40.5881 48.9841 40.2499C49.4096 39.9007 49.7697 39.4642 50.0971 39.0059Z" fill="white"/>
<path id="Vector_35" d="M46.769 41.7884C46.3435 41.963 45.907 42.1376 45.4814 42.3122C44.0193 42.9014 42.5244 43.447 40.9858 43.7853C40.2002 43.9599 39.3927 44.0799 38.5961 44.2108C37.7778 44.3418 36.9703 44.5054 36.1519 44.6146C35.3008 44.7237 34.4388 44.8219 33.5877 44.8437C32.7693 44.8655 31.9509 44.9092 31.1325 44.9419C31.6236 45.1601 32.1146 45.3456 32.6274 45.4875C33.2712 45.673 33.9259 45.7712 34.5915 45.8585C35.8573 46.0331 37.134 46.0658 38.3997 45.9021C39.0653 45.8148 39.7091 45.6839 40.342 45.4657C40.964 45.2583 41.575 45.0292 42.1861 44.7673C42.8081 44.5054 43.43 44.2108 44.0193 43.8835C44.6085 43.5561 45.165 43.1633 45.6997 42.7487C45.6997 42.7487 45.6997 42.7487 45.6887 42.7596C46.0707 42.4649 46.4307 42.1376 46.769 41.7884Z" fill="white"/>
<path id="Vector_36" d="M23.2543 41.6029C23.7453 42.1267 24.3236 42.5741 24.9565 42.9233C25.262 43.0869 25.5894 43.2179 25.9058 43.3488C26.2768 43.4907 26.6696 43.6107 27.0515 43.7089C26.4514 43.3379 25.8622 42.9669 25.2511 42.5959C24.6182 42.2031 23.9417 41.8866 23.2543 41.6029Z" fill="white"/>
<path id="Vector_37" d="M19.2497 37.9475C19.577 38.4821 19.948 38.9841 20.3954 39.4205C20.6136 39.6388 20.8537 39.8243 21.0937 40.0098C21.3665 40.2171 21.6502 40.4244 21.9449 40.6099C21.5302 40.1625 21.1156 39.7152 20.69 39.2678C20.2426 38.7877 19.7407 38.373 19.2497 37.9475C19.2497 37.9365 19.2497 37.9365 19.2497 37.9475Z" fill="white"/>
<path id="Vector_38" d="M14.3394 23.1403C14.0994 24.2097 14.0012 25.3008 13.9902 26.392C13.9902 27.6578 14.143 28.9453 14.4922 30.1675C14.6559 30.7567 14.8959 31.3241 15.136 31.8915C15.3651 32.4262 15.627 32.939 15.8998 33.4519C16.4563 34.4885 17.1874 35.4269 17.973 36.2889C17.733 35.7979 17.5038 35.3178 17.2965 34.8158C17.3074 34.8377 17.3074 34.8486 17.3183 34.8704C16.991 34.0957 16.6745 33.31 16.4017 32.5135C16.2708 32.1207 16.1399 31.7169 16.0198 31.3132C15.8998 30.8985 15.7907 30.473 15.6816 30.0583C15.4524 29.1636 15.2233 28.2688 15.0269 27.3741C14.8523 26.5448 14.7104 25.7046 14.5904 24.8644C14.5249 24.297 14.4595 23.7296 14.4049 23.1621C14.4049 23.1403 14.3831 23.1185 14.3612 23.1185C14.3612 23.1185 14.3503 23.1185 14.3394 23.1403Z" fill="white"/>
<path id="Vector_39" d="M17.0455 14.2473C16.4454 15.0111 15.9434 15.8513 15.5615 16.7461C15.1578 17.7063 14.9505 18.7211 14.885 19.7577C14.9396 19.6377 14.9832 19.5176 15.0378 19.3976C15.0378 19.3976 15.0378 19.4085 15.0269 19.4085C15.3869 18.5574 15.747 17.7172 16.0744 16.8552C16.4017 15.9932 16.7182 15.1202 17.0455 14.2473Z" fill="white"/>
<path id="Vector_40" d="M29.3539 4.51401C28.4919 4.69951 27.6517 4.96139 26.8333 5.28874C25.9931 5.61609 25.1747 6.01982 24.4 6.48903C23.6471 6.93641 22.9487 7.47108 22.2831 8.03849C21.6284 8.59498 21.0174 9.19513 20.4281 9.8171C20.8428 9.42427 21.2793 9.05328 21.7376 8.7041C22.2068 8.3331 22.6978 7.99484 23.1997 7.65658C23.7126 7.31832 24.2363 7.01279 24.7601 6.70726C25.7967 6.10712 26.866 5.56153 27.979 5.09233C27.9681 5.09233 27.9681 5.10324 27.9572 5.10324C28.4264 4.90683 28.8956 4.73224 29.3648 4.54674C29.3867 4.53583 29.3757 4.51401 29.3539 4.51401Z" fill="white"/>
<path id="Vector_41" d="M26.9643 0.640374C26.9315 0.651286 26.8988 0.662198 26.8551 0.673109C26.5278 0.782226 26.1895 0.880431 25.8622 0.989548C25.4912 1.10958 25.1202 1.24052 24.7601 1.39328C24.0072 1.6879 23.2652 2.04798 22.5559 2.42989C21.8358 2.82271 21.1265 3.23736 20.4391 3.68474C19.7189 4.15394 19.0314 4.6777 18.3658 5.21238C17.733 5.72523 17.1219 6.28172 16.5545 6.86004C15.9871 7.42745 15.4851 8.06033 15.005 8.70412C14.5249 9.34791 14.0994 10.0244 13.7065 10.7228C13.4992 11.0938 13.3028 11.4648 13.1173 11.8467C12.9427 12.2068 12.79 12.5778 12.6372 12.9488C12.5935 13.0142 12.7027 13.0688 12.7463 13.0033C12.9973 12.6105 13.2701 12.2286 13.5429 11.8358C13.8157 11.443 14.1103 11.0501 14.4049 10.6573C14.7977 10.1445 15.2124 9.65344 15.627 9.16241C16.0853 8.63865 16.5763 8.13671 17.0455 7.62386C17.9948 6.59816 19.0205 5.64885 20.1226 4.78682C20.9956 4.12121 21.9121 3.48833 22.8724 2.94274C23.8653 2.38625 24.891 1.8734 25.9386 1.43693C25.9276 1.43693 25.9167 1.44784 25.9058 1.44784C26.2659 1.29508 26.6151 1.15322 26.9861 1.02228C27.0188 1.01137 27.0515 1.00046 27.0843 0.989548C27.3134 0.924078 27.237 0.585815 27.0406 0.585815C27.0079 0.629462 26.9861 0.629462 26.9643 0.640374ZM25.9386 1.45875C25.9495 1.45875 25.9495 1.45875 25.9604 1.44784C25.9495 1.45875 25.9386 1.45875 25.9386 1.45875Z" fill="#323232"/>
<path id="Vector_42" d="M41.8914 0.716766C42.9499 1.2187 43.9865 1.76429 45.0013 2.36443C46.0052 2.95367 46.9872 3.57563 47.9147 4.27398C48.8313 4.99415 49.6933 5.76889 50.5117 6.58726C50.9372 7.02373 51.341 7.49293 51.7338 7.95123C52.083 8.36587 52.4212 8.79143 52.7595 9.21698C53.5015 10.199 54.1671 11.2247 54.8109 12.2723C55.1492 12.8288 55.4765 13.3853 55.7711 13.9636C56.0439 14.4982 56.2949 15.0438 56.524 15.5894C56.7641 16.1787 56.9932 16.7788 57.2115 17.3789C57.266 17.5426 57.3097 17.7281 57.3533 17.8918C57.397 18.0664 57.4406 18.241 57.4843 18.4156C57.5716 18.7647 57.6589 19.1139 57.7352 19.4631C57.8116 19.8013 57.9207 20.1396 58.008 20.4888C58.0953 20.8161 58.1608 21.1544 58.2263 21.4927C58.3572 22.1255 58.4554 22.7693 58.5427 23.4022C58.5754 23.6859 58.6082 23.9696 58.6409 24.2533C58.6736 24.6025 58.75 24.9626 58.8046 25.3117C58.7937 25.2681 58.7937 25.2135 58.7828 25.159C58.8046 25.3445 58.8264 25.5191 58.8591 25.7046C58.8482 25.6609 58.8482 25.6173 58.8373 25.5736C58.9464 26.3593 59.0556 27.1449 59.0883 27.9415C59.3393 27.1995 59.6011 26.4684 59.7866 25.7046C59.8848 25.3117 59.9612 24.9189 60.0267 24.5152C60.1031 24.0896 60.114 23.6423 60.1358 23.2058C60.1795 22.3765 60.1576 21.5472 60.0922 20.7179C60.0594 20.3033 60.0158 19.8886 59.9612 19.474C59.8958 18.972 59.8085 18.4919 59.6884 18.0009C59.5902 17.5863 59.4593 17.1825 59.3283 16.7897C59.2629 16.5933 59.2192 16.386 59.1538 16.1787C59.0883 15.9386 59.0119 15.7094 58.9246 15.4803C58.63 14.6183 58.2808 13.7781 57.888 12.9597C57.517 12.1959 57.1351 11.4211 56.6768 10.701C56.1858 9.92624 55.6293 9.18425 55.04 8.47499C54.6363 7.98396 54.2108 7.50385 53.7634 7.04555C53.3051 6.59817 52.8359 6.16171 52.3339 5.75797C51.2973 4.90686 50.2171 4.12122 49.0713 3.43378C47.9584 2.75726 46.7908 2.17894 45.5796 1.68791C44.4121 1.22962 43.1463 0.913177 41.8914 0.716766Z" fill="#323232"/>
<path id="Vector_43" d="M58.3681 31.215C57.9644 31.9133 57.5934 32.6226 57.2879 33.3755C56.9824 34.1175 56.7969 34.914 56.5786 35.6888C57.0697 35.0886 57.5279 34.4339 57.8335 33.7247C58.1826 32.939 58.3354 32.0661 58.3681 31.215Z" fill="#323232"/>
<path id="Vector_44" d="M55.7384 37.1837C55.5311 37.4237 55.3347 37.6638 55.1492 37.9148C55.0292 38.0566 54.9201 38.2094 54.8109 38.3512C54.8 38.3622 54.8 38.3731 54.7891 38.384C54.7891 38.384 54.7891 38.3731 54.8 38.3731C54.7236 38.4713 54.6473 38.5695 54.5709 38.6677L54.5818 38.6568C54.5709 38.6677 54.5709 38.6786 54.56 38.6786C54.058 39.3224 53.5888 39.9989 53.1524 40.6863C54.2654 39.7698 55.1819 38.5367 55.7384 37.1837ZM54.5491 38.6895C54.5491 38.6786 54.5491 38.6786 54.5491 38.6895L54.56 38.6786C54.5491 38.6786 54.5491 38.6786 54.5491 38.6895ZM54.7891 38.3731C54.7891 38.3621 54.8 38.3622 54.8 38.3512C54.8 38.3622 54.7891 38.3731 54.7891 38.3731Z" fill="#323232"/>
<path id="Vector_45" d="M51.1009 42.7486C50.4135 43.196 49.7261 43.6107 49.0059 44.0035C48.2748 44.4072 47.5219 44.7673 46.7581 45.1056C46.278 45.2911 45.7979 45.4438 45.3068 45.6184C44.7831 45.8039 44.2484 45.9458 43.7246 46.1094C42.6771 46.4477 41.6187 46.7314 40.5711 47.0478C39.5454 47.3534 38.487 47.5716 37.4286 47.768C36.3701 47.9644 35.3117 48.1827 34.2424 48.3354C33.9368 48.3791 33.6204 48.4118 33.3149 48.4445C32.9766 48.4773 32.6492 48.4882 32.311 48.5209C31.6235 48.5864 30.9361 48.6519 30.2378 48.6519C30.8816 48.9028 31.5253 49.1429 32.2019 49.3393C32.551 49.4375 32.9111 49.503 33.2603 49.5794C33.6204 49.6557 33.9696 49.7212 34.3297 49.7758C35.1044 49.8958 35.8791 49.9722 36.6538 50.0049C37.4831 50.0376 38.3233 49.9394 39.1417 49.8303C39.8728 49.7321 40.6039 49.5794 41.3241 49.4157C42.0333 49.252 42.7208 48.9901 43.3864 48.7064C43.7901 48.5427 44.1829 48.3572 44.5757 48.1608C44.914 47.9862 45.2304 47.7898 45.5578 47.5825C46.1907 47.1897 46.7908 46.7314 47.38 46.2622C48.7549 45.2474 50.0098 44.0689 51.1009 42.7486Z" fill="#323232"/>
<path id="Vector_46" d="M22.6105 45.924C23.1888 46.3822 23.8108 46.786 24.4873 47.0806C25.1747 47.3752 25.9167 47.5716 26.6478 47.7244C25.9931 47.4079 25.3384 47.0697 24.6837 46.7532C24.3564 46.5896 24.0072 46.4586 23.658 46.3168C23.3088 46.1749 22.9597 46.044 22.6105 45.924Z" fill="#323232"/>
<path id="Vector_47" d="M10.1384 27.5596C10.0839 29.2181 10.2584 30.8986 10.6294 32.5135C11.0114 34.2048 11.6442 35.8306 12.539 37.3146C13.4228 38.7768 14.5358 40.0971 15.7907 41.2428C16.4126 41.8103 17.0892 42.3122 17.7766 42.7923C18.0821 43.0105 18.3986 43.207 18.715 43.4143C19.0533 43.6325 19.4024 43.8507 19.7516 44.0581C19.3915 43.698 19.0424 43.3488 18.7041 42.9778C18.344 42.585 17.9948 42.1594 17.6675 41.7339C17.0673 40.9482 16.4672 40.1408 15.9216 39.3115C15.3324 38.4167 14.7759 37.5001 14.2412 36.5835C13.6956 35.667 13.2046 34.7176 12.7027 33.7683C12.2226 32.8627 11.7752 31.9243 11.3714 30.9749C10.8913 29.8401 10.4985 28.7053 10.1384 27.5596Z" fill="#323232"/>
<path id="Vector_48" d="M11.4478 15.7967C10.8586 16.9643 10.4112 18.2082 10.1384 19.474C9.86563 20.7506 9.80016 22.0819 9.89837 23.3913C9.89837 23.4131 9.90928 23.424 9.92019 23.4349C9.9311 23.5331 9.94201 23.6204 9.94201 23.7186C9.95292 23.6204 9.97475 23.5331 9.98566 23.4349C9.99657 23.424 10.0075 23.4131 10.0075 23.4022C10.193 22.1364 10.433 20.8816 10.6513 19.6158C10.8804 18.3391 11.1423 17.0734 11.4478 15.7967Z" fill="#323232"/>
<path id="Vector_49" d="M12.8336 7.03463C12.5935 7.30742 12.3535 7.5693 12.1243 7.85301C11.8625 8.16944 11.6115 8.4968 11.3605 8.82415C10.8477 9.51158 10.3785 10.2318 9.95292 10.9738C9.07998 12.4687 8.39254 14.0618 7.84696 15.6985C7.29046 17.3571 6.94129 19.0811 6.70123 20.8161C6.47208 22.5074 6.41752 24.2206 6.53755 25.9228C6.55938 26.272 6.59211 26.6211 6.63576 26.9594C6.6794 27.3195 6.71214 27.6796 6.75579 28.0397C6.79943 28.3779 6.8649 28.7162 6.90855 29.0544C6.9522 29.36 7.01767 29.6764 7.11587 29.971C7.08314 29.6 7.02858 29.2181 6.97402 28.8471V28.858C6.89764 28.2252 6.83217 27.5814 6.79943 26.9485C6.7667 26.2938 6.7667 25.6391 6.77761 24.9844C6.81034 23.675 6.89764 22.3656 7.07222 21.0671C7.07222 21.078 7.07222 21.0889 7.07222 21.0998C7.41049 18.6338 8.14157 16.2114 9.1018 13.9199C9.62556 12.6869 10.2366 11.4866 10.9022 10.33C11.2187 9.77346 11.5678 9.21697 11.9061 8.67138C12.0807 8.39859 12.2662 8.1258 12.4517 7.86392C12.6154 7.62386 12.779 7.37289 12.9645 7.13283C12.9973 7.07827 12.9427 7.00189 12.8882 7.00189C12.8663 7.0128 12.8554 7.0128 12.8336 7.03463ZM7.08314 21.1325C7.08314 21.1216 7.08314 21.1107 7.08314 21.0998C7.08314 21.1216 7.08314 21.1325 7.08314 21.1325Z" fill="white"/>
<path id="Vector_50" d="M7.44322 31.4987C7.32319 31.5314 7.22498 31.6733 7.26863 31.8042C7.7051 34.1939 8.56712 36.5181 9.82197 38.5913C10.4439 39.617 11.1205 40.6209 11.8734 41.5593C12.6263 42.5195 13.4774 43.4034 14.3831 44.2217C14.4267 44.2654 14.5031 44.1999 14.4594 44.1454C14.2739 43.9162 14.0994 43.698 13.9139 43.4688C13.9139 43.4688 13.9139 43.4579 13.9029 43.4579C13.9029 43.4579 13.9029 43.4688 13.9139 43.4688C12.8991 42.1594 11.9498 40.7955 11.1205 39.366C10.7058 38.6568 10.3457 37.9257 9.98564 37.1837C9.61465 36.4199 9.26547 35.6451 8.92721 34.8595C8.49074 33.812 8.09792 32.7426 7.73783 31.6624C7.7051 31.5532 7.60689 31.4769 7.49778 31.4769C7.48686 31.4878 7.46504 31.4878 7.44322 31.4987ZM8.93812 34.8704C8.93812 34.8813 8.94903 34.8813 8.94903 34.8922C8.94903 34.8813 8.94903 34.8813 8.93812 34.8704Z" fill="white"/>
<path id="Vector_51" d="M16.7945 46.3932C17.3292 47.0042 17.9075 47.5825 18.5186 48.1281C19.1515 48.6955 19.8607 49.1756 20.57 49.6448C22.0103 50.5942 23.5707 51.3689 25.1856 51.9581C25.9931 52.2527 26.8115 52.5037 27.6299 52.7219C28.0336 52.8311 28.4264 52.9402 28.8301 53.0384C29.0375 53.0929 29.2339 53.1366 29.4412 53.1802C29.6704 53.2348 29.8995 53.3003 30.1177 53.3548C30.5215 53.4639 30.9361 53.5185 31.3398 53.5731C31.8418 53.6385 32.3437 53.6931 32.8566 53.7149C33.7077 53.7586 34.5697 53.7476 35.4208 53.6931C36.4029 53.6385 37.3631 53.4858 38.3233 53.3112C39.2836 53.1366 40.2329 52.9074 41.1713 52.6237C42.9281 52.0891 44.6521 51.3907 46.2234 50.4414C46.2452 50.4305 46.2343 50.3978 46.2125 50.4087C45.2523 50.7033 44.292 50.9761 43.3209 51.2052C42.3061 51.4562 41.2913 51.6417 40.2547 51.7835C39.4145 51.8927 38.5634 51.969 37.7123 52.0127C37.2649 52.0345 36.8066 52.0345 36.3592 52.0236C36.1628 52.0236 35.9664 52.0236 35.77 52.0236C35.5081 52.0236 35.2462 52.0236 34.9843 52.0127C34.1223 51.9909 33.2712 51.9363 32.4201 51.849C31.9618 51.8054 31.5035 51.7726 31.0452 51.729C30.6306 51.6853 30.205 51.6635 29.7904 51.6308C29.223 51.5435 28.6556 51.4453 28.11 51.3143C27.5098 51.1725 26.9206 51.0088 26.3314 50.8233C25.1638 50.4632 24.0181 50.0158 22.8833 49.5466C21.8248 49.0993 20.7991 48.5973 19.7953 48.0517C18.8023 47.5171 17.7875 46.9715 16.7945 46.3932Z" fill="white"/>
<path id="Vector_52" d="M56.1203 43.0432C55.3129 43.7634 54.4836 44.4399 53.687 45.1601C52.8796 45.8912 52.1376 46.6878 51.3628 47.4516C51.8102 47.2115 52.2467 46.9496 52.6831 46.6768C53.1633 46.3713 53.5997 46.0112 54.0253 45.6402C54.8437 44.8873 55.5093 43.9707 56.1203 43.0432Z" fill="white"/>
<path id="Vector_53" d="M62.7001 23.3804C62.6892 23.5113 62.6783 23.6313 62.6783 23.7623C62.6674 23.9587 62.6346 24.1551 62.6128 24.3515C62.5692 24.7116 62.5364 25.0717 62.5037 25.4318C62.3727 26.392 62.2091 27.3413 62.0345 28.2906C61.9472 28.7817 61.8599 29.2727 61.7508 29.7528C61.6417 30.2547 61.5216 30.7458 61.4016 31.2477C61.2707 31.7606 61.1616 32.2843 61.0306 32.7972C60.8997 33.2882 60.7578 33.7792 60.6051 34.2703C60.3104 35.2087 59.9722 36.1362 59.5794 37.0527C59.5575 37.1073 59.5357 37.1619 59.503 37.2273C59.2084 37.9366 58.8919 38.6349 58.5427 39.3115C58.1936 39.9989 57.8117 40.6754 57.4297 41.3519C58.1499 40.5772 58.7937 39.7261 59.3939 38.8532C59.6885 38.4276 59.9613 38.0021 60.2231 37.5656C60.5068 37.0855 60.7687 36.5835 61.0197 36.0707C61.5325 35.0559 61.9363 33.9975 62.3291 32.939C62.7328 31.8369 62.9511 30.6912 63.1038 29.5346C63.0929 29.5891 63.0929 29.6546 63.082 29.7092C63.2348 28.7271 63.3002 27.7341 63.2893 26.7412C63.2893 26.2174 63.2348 25.7046 63.1911 25.1808C63.1802 24.9735 63.1693 24.7771 63.1475 24.5807C63.1147 24.3188 63.0711 24.0678 63.0275 23.8059C63.0165 23.6532 62.9947 23.4895 62.962 23.3367C62.9511 23.2713 62.8965 23.2385 62.842 23.2385C62.7765 23.2385 62.7001 23.2931 62.7001 23.3804Z" fill="white"/>
<path id="Vector_54" d="M60.1249 12.6323C60.365 13.3743 60.6378 14.1054 60.8888 14.8474C61.1725 15.6767 61.4016 16.5169 61.6417 17.3571C61.8708 18.1536 62.089 18.9502 62.2964 19.7468C62.3727 20.0523 62.4491 20.3578 62.5255 20.6633C62.6128 21.0343 62.6674 21.4053 62.7219 21.7763C62.7001 21.5035 62.6783 21.2198 62.6564 20.947C62.6346 20.6852 62.6237 20.4342 62.591 20.1723C62.5692 19.9323 62.5473 19.6813 62.5146 19.4412C62.471 19.1357 62.4273 18.8193 62.3727 18.5137C62.2636 17.8809 62.1109 17.248 61.9145 16.626C61.718 16.004 61.4889 15.4039 61.2379 14.8038C61.2488 14.8147 61.2488 14.8365 61.2598 14.8474C60.9433 14.0836 60.5723 13.3307 60.1249 12.6323Z" fill="white"/>
<path id="Vector_55" d="M33.7732 -4.60816C32.8348 -4.58634 31.8963 -4.54269 30.9689 -4.38992C30.1396 -4.24807 29.3212 -4.06257 28.5137 -3.84434C27.7063 -3.62611 26.9097 -3.33149 26.135 -3.02596C25.3275 -2.70952 24.5309 -2.36035 23.7344 -1.98935C23.3634 -1.81476 23.0033 -1.64018 22.6432 -1.45468C22.2831 -1.25827 21.9231 -1.05094 21.5739 -0.83271C20.8974 -0.439888 20.2536 0.0184021 19.6207 0.465782C19.2824 0.694928 18.966 0.945898 18.6495 1.21869C18.2785 1.53513 17.9294 1.8843 17.5693 2.22257C16.9364 2.82271 16.3253 3.45559 15.7252 4.08847C15.8343 4.00117 15.9325 3.92479 16.0416 3.8375C16.0416 3.8375 16.0416 3.8375 16.0307 3.8375C16.5108 3.4665 17.0128 3.12824 17.5256 2.80089C17.8093 2.6263 18.104 2.4408 18.4095 2.28804C18.7259 2.12436 19.0424 1.96069 19.3479 1.7861C19.8607 1.51331 20.3627 1.21869 20.8864 0.967721C21.4211 0.70584 21.9558 0.465782 22.5014 0.225725C23.6471 -0.243478 24.8037 -0.669034 26.004 -0.985473C27.1716 -1.291 28.3719 -1.50924 29.5722 -1.67291C30.2269 -1.7602 30.8816 -1.80385 31.5253 -1.88023C32.2783 -1.95662 33.0312 -2.033 33.7732 -2.06573C34.1005 -2.07664 34.4279 -2.08756 34.7552 -2.08756C34.9298 -2.08756 35.1044 -2.10938 35.2899 -2.10938C35.4972 -2.12029 35.7154 -2.10938 35.9337 -2.09847C36.6539 -2.08756 37.3631 -2.01117 38.0833 -1.92388C40.6366 -1.55288 43.0699 -0.701769 45.4814 0.182079C45.776 0.313019 46.0597 0.443959 46.3544 0.585812C46.7035 0.749487 47.0418 0.967721 47.3801 1.15322C48.1002 1.54604 48.7986 1.96069 49.5078 2.37533C50.228 2.78997 50.9154 3.25918 51.6247 3.69565C52.3012 4.11029 52.9668 4.55767 53.5997 5.03779C53.9925 5.35423 54.3745 5.67066 54.7564 6.00893C55.1601 6.3581 55.5638 6.71819 55.9457 7.08919C56.3167 7.44927 56.6877 7.82027 57.026 8.21309C57.3861 8.63865 57.7462 9.06421 58.0844 9.51159C58.7173 10.33 59.2956 11.1811 59.8303 12.0649C59.1865 10.5482 58.4227 9.08603 57.5279 7.70024C57.0806 7.0128 56.655 6.31446 56.164 5.64884C55.662 4.9614 55.1165 4.31761 54.56 3.66291C54.0144 3.01912 53.4361 2.39715 52.825 1.79701C52.1812 1.15322 51.4392 0.618546 50.7081 0.0838723C50.0425 -0.396243 49.3332 -0.810887 48.6022 -1.1928C48.253 -1.3783 47.8929 -1.52015 47.5328 -1.69473C47.14 -1.89114 46.7363 -2.05482 46.3544 -2.24032C45.2086 -2.80773 43.9865 -3.2442 42.7426 -3.56064C41.4659 -3.88799 40.1565 -4.09531 38.8471 -4.25898C38.9017 -4.24807 38.9562 -4.24807 39.0108 -4.23716C38.5743 -4.29172 38.1488 -4.34628 37.7123 -4.38992C37.254 -4.43357 36.7848 -4.4554 36.3265 -4.48813C35.9009 -4.52087 35.4754 -4.53178 35.0498 -4.56451C34.8425 -4.57542 34.6352 -4.58634 34.4279 -4.58634C34.2315 -4.61907 34.0023 -4.61907 33.7732 -4.60816Z" fill="white"/>
<path id="Vector_56" d="M20.3081 -4.02985C19.588 -3.72432 18.8896 -3.35332 18.2131 -2.9605C17.482 -2.53494 16.7509 -2.07665 16.0526 -1.59654C14.645 -0.614482 13.3355 0.498511 12.1243 1.72062C12.0807 1.76427 12.0371 1.80792 12.0043 1.84065C11.5679 2.23347 11.1423 2.64812 10.7277 3.06276C10.4549 3.34647 10.193 3.65199 9.9311 3.95752C9.63648 4.3067 9.35278 4.65587 9.06907 5.00505C8.5344 5.67066 8.03246 6.3581 7.55235 7.05645C7.07223 7.7548 6.6685 8.5077 6.27568 9.2497C6.09018 9.60978 5.91559 9.96987 5.741 10.33C5.24998 11.2356 4.79169 12.1631 4.38795 13.1124C3.89693 14.2582 3.44955 15.4148 3.06764 16.6042C2.87123 17.2043 2.68573 17.8045 2.52205 18.4046C2.35838 19.0048 2.20561 19.6049 2.07467 20.216C2.0092 20.5215 1.96555 20.827 1.88917 21.1216C1.81279 21.4163 1.73641 21.7218 1.67094 22.0273C1.6382 22.1582 1.62729 22.3001 1.60547 22.4419C1.58364 22.6165 1.55091 22.7802 1.52909 22.9548C1.47453 23.3585 1.43088 23.7732 1.40906 24.1769C1.40906 24.4061 1.46362 24.6134 1.58364 24.8098C1.69276 24.9953 1.84553 25.1481 2.04194 25.2681C2.43476 25.4972 2.92578 25.4972 3.31861 25.2681C3.70052 25.0389 3.94057 24.6243 3.94057 24.1769C3.94057 24.1551 3.94057 24.1224 3.94057 24.1005C3.92966 23.8932 3.92966 23.6859 3.92966 23.4786C3.92966 23.1949 3.90784 22.9221 3.89693 22.6384C3.88601 22.3983 3.8751 22.1473 3.85328 21.9073C3.83145 21.6345 3.80963 21.3508 3.82054 21.078C3.85328 20.0523 3.94057 19.0375 4.07151 18.0227C4.23519 16.8333 4.48616 15.6549 4.8026 14.4982C4.96627 13.909 5.16268 13.3198 5.37001 12.7414C5.56642 12.174 5.79556 11.6066 6.02471 11.0501C6.09018 10.8974 6.15565 10.7446 6.22112 10.5918C6.27568 10.4827 6.34115 10.3736 6.39571 10.2536C6.73397 9.6207 7.09405 8.98782 7.46505 8.37676C7.84696 7.76571 8.21796 7.15465 8.61078 6.56542C9.0036 5.96528 9.41825 5.38696 9.8438 4.80863C10.3021 4.23031 10.7822 3.66291 11.2623 3.0955C11.5788 2.71359 11.9061 2.34259 12.2335 1.9825C12.2662 1.94977 12.3098 1.90612 12.3426 1.87339C13.3683 0.880422 14.4595 -0.0361624 15.5834 -0.92001C15.5724 -0.909099 15.5615 -0.909099 15.5506 -0.898187C16.3472 -1.50924 17.1546 -2.08756 17.9948 -2.63315C18.3877 -2.88412 18.7805 -3.12417 19.1842 -3.36423C19.5334 -3.56064 19.9262 -3.78979 20.3081 -4.02985ZM5.98106 11.0938C5.98106 11.1047 5.97015 11.1156 5.97015 11.1265C5.97015 11.1265 5.98106 11.1047 5.98106 11.0938Z" fill="#323232"/>
<path id="Vector_57" d="M49.3551 -4.09531C50.108 -3.68066 50.85 -3.24419 51.5701 -2.76408C52.3121 -2.26214 53.0323 -1.74929 53.7416 -1.2037C54.8437 -0.352591 55.8912 0.574903 56.8841 1.55696C57.3643 2.03707 57.8553 2.51719 58.3027 3.01912C58.761 3.54289 59.2083 4.07756 59.6339 4.62315C60.5177 5.76887 61.347 6.98007 62.0563 8.23492C62.7983 9.53341 63.453 10.8865 64.0422 12.2722C65.2752 15.2075 66.1373 18.3064 66.5846 21.4599C66.6829 22.1583 66.7483 22.8675 66.8029 23.5659C66.8247 23.915 66.8574 24.2751 66.8793 24.6243C66.9011 24.9735 66.9011 25.3117 66.9011 25.6609C66.9011 27.0467 66.7592 28.4216 66.5846 29.7964C66.5846 29.7746 66.5847 29.7637 66.5956 29.7419C66.5628 29.971 66.5301 30.1893 66.5083 30.4184C66.5083 30.4075 66.5083 30.3966 66.5083 30.3857C66.4319 30.9749 66.3337 31.5641 66.2246 32.1425C66.1264 32.699 65.9954 33.2445 65.8754 33.7901C66.1591 33.0045 66.3992 32.1861 66.6174 31.3786C66.8356 30.5275 67.0102 29.6655 67.1302 28.7926C67.2503 27.9524 67.3157 27.1122 67.3703 26.272C67.403 25.8573 67.4249 25.4427 67.4358 25.0389C67.4576 24.5807 67.4794 24.1224 67.4903 23.6641C67.5012 23.2385 67.4794 22.802 67.4685 22.3765C67.4467 21.9182 67.4249 21.4599 67.3812 21.0016C67.3048 20.1178 67.1957 19.223 67.0429 18.3501C66.7483 16.626 66.29 14.9238 65.679 13.287C65.0679 11.6394 64.3041 10.0463 63.3984 8.54045C62.9511 7.80936 62.4709 7.08919 61.9799 6.37993C61.4889 5.68158 60.9651 5.01597 60.4195 4.36127C59.874 3.70656 59.3065 3.0846 58.7064 2.47354C58.1063 1.86248 57.5061 1.27325 56.8732 0.705844C55.5966 -0.428973 54.2108 -1.43285 52.7486 -2.32761C51.6574 -2.9714 50.5117 -3.56063 49.3551 -4.09531C49.366 -4.09531 49.366 -4.09531 49.3551 -4.09531ZM66.4864 30.4075V30.3966C66.4974 30.3966 66.4974 30.3966 66.4864 30.4075Z" fill="#323232"/>
<path id="Vector_58" d="M64.6314 37.2709C64.0531 38.2093 63.453 39.1259 62.831 40.0316C62.22 40.9154 61.6089 41.7884 60.9651 42.6395C60.485 43.2506 59.9831 43.8289 59.4702 44.4072C58.9464 44.9964 58.4118 45.5747 57.8553 46.1094C57.5825 46.3713 57.3097 46.6332 57.026 46.8841C56.8732 47.026 56.7205 47.1569 56.5677 47.2988C56.4258 47.4188 56.2949 47.5498 56.164 47.6807C55.5856 48.2045 54.9964 48.7173 54.3744 49.1974C53.2505 50.0595 52.083 50.856 50.8718 51.5762C50.228 51.9581 49.5733 52.3182 48.9186 52.6673C48.2966 52.9947 47.6637 53.3221 47.009 53.6058C45.4923 54.2386 43.9319 54.7951 42.3279 55.2098C40.7021 55.6353 39.0544 55.9518 37.3849 56.1809C36.7302 56.2682 36.0755 56.3337 35.4208 56.3992C34.6897 56.4755 33.9477 56.4864 33.2057 56.4755C31.7763 56.4646 30.3469 56.3882 28.9283 56.2137C28.2082 56.1154 27.488 55.9845 26.7787 55.8427C26.0913 55.7008 25.4039 55.5262 24.7164 55.3625C26.2986 56.0282 27.979 56.4864 29.6485 56.8684C31.3398 57.2612 33.0639 57.4685 34.7988 57.5558C35.2135 57.5776 35.6281 57.6213 36.0428 57.6322C36.4902 57.6431 36.9375 57.6431 37.3849 57.6322C38.2469 57.6213 39.109 57.5558 39.971 57.4576C41.7605 57.2503 43.5282 56.8356 45.2523 56.3119C46.0925 56.0609 46.9108 55.7445 47.7183 55.4062C48.5585 55.057 49.3987 54.7078 50.2171 54.3041C51.712 53.5512 53.1414 52.6564 54.4836 51.6526C55.2037 51.1179 55.8912 50.5396 56.5677 49.9612C57.2006 49.4157 57.8116 48.8483 58.379 48.2372C58.9574 47.6043 59.492 46.9496 60.0267 46.284C60.5941 45.5747 61.1179 44.8218 61.6089 44.058C62.2745 43.0214 62.8965 41.9411 63.4093 40.8282C63.6603 40.2607 63.9004 39.6933 64.1077 39.115C64.3041 38.5149 64.4787 37.8929 64.6314 37.2709C64.6424 37.2709 64.6424 37.26 64.6314 37.2709C64.6314 37.26 64.6314 37.26 64.6314 37.2709ZM54.4945 49.0992C54.4726 49.1101 54.4617 49.121 54.4399 49.1429C54.4617 49.132 54.4726 49.1101 54.4945 49.0992Z" fill="#323232"/>
<path id="Vector_59" d="M3.29677 31.2368C3.37315 32.2843 3.52591 33.321 3.74415 34.3357C3.85326 34.8595 3.97329 35.3833 4.12606 35.8961C4.28973 36.4417 4.48614 36.9873 4.71529 37.522C5.57731 39.5297 6.84307 41.352 8.29433 42.9778C7.56324 41.5484 6.89763 40.0971 6.27566 38.6131V38.624C6.05743 38.0894 5.8392 37.5547 5.62096 37.02C5.36999 36.3871 5.08629 35.7761 4.8135 35.1432C4.82441 35.1759 4.84623 35.2087 4.85714 35.2523C4.7262 34.9468 4.58435 34.6304 4.45341 34.3248C4.04968 33.31 3.66777 32.2843 3.29677 31.2368C3.30768 31.2368 3.30768 31.2368 3.29677 31.2368Z" fill="#323232"/>
<path id="Vector_60" d="M19.0096 -8.21991C17.1001 -7.32515 15.2887 -6.2558 13.5647 -5.03369C12.5717 -4.35717 11.6115 -3.63699 10.7167 -2.85135C10.1384 -2.34941 9.58189 -1.82565 9.04722 -1.28007C8.52346 -0.745394 7.9997 -0.199809 7.48685 0.356688C6.84306 1.07686 6.232 1.81886 5.64277 2.59359C5.46818 2.81182 5.30451 3.01914 5.12992 3.23738C4.43157 4.14305 3.75504 5.08146 3.14399 6.0526C2.51111 7.03465 1.93279 8.04944 1.38721 9.08605C1.12532 9.58799 0.874356 10.1008 0.64521 10.6246C0.405153 11.1811 0.176007 11.7376 -0.0422269 12.2941C-0.140432 12.556 -0.260461 12.8069 -0.358666 13.0688C-0.467784 13.3525 -0.565989 13.6362 -0.675106 13.909C-0.762399 14.1491 -0.838781 14.3891 -0.904252 14.6292C-0.926075 14.6947 -0.936986 14.7492 -0.947898 14.8147C-0.947898 14.8474 -0.95881 14.8802 -0.95881 14.9129C-0.969722 15.0111 -0.991545 15.1093 -1.00246 15.2075C-1.00246 15.3821 -0.936987 15.524 -0.860605 15.6767C-0.849693 15.7095 -0.838781 15.7422 -0.816958 15.7749C-0.816958 15.7858 -0.806046 15.7967 -0.806046 15.7967C-0.784223 15.8295 -0.762399 15.8513 -0.740576 15.884L-0.729664 15.895L-0.718753 15.9059L-0.707841 15.9168C-0.64237 15.9713 -0.5769 16.0041 -0.500519 16.0259C-0.369578 16.0586 -0.173167 16.0586 -0.0640504 15.9713C-0.0313153 15.9495 0.0014199 15.9277 0.034155 15.895C0.165095 15.8077 0.296036 15.7095 0.372418 15.5676C0.416065 15.4803 0.4488 15.393 0.481535 15.2948C0.51427 15.2075 0.557917 15.1202 0.57974 15.022C0.656122 14.7492 0.721592 14.4764 0.787062 14.2146C0.852533 13.9199 0.928914 13.6253 1.01621 13.3307C1.09259 13.0361 1.16897 12.7415 1.26718 12.4469C1.45268 11.8685 1.66 11.3011 1.86732 10.7337C2.08556 10.1663 2.29288 9.58799 2.53293 9.03149C3.06761 7.77665 3.66775 6.56545 4.33337 5.37607C4.66072 4.79775 4.99898 4.23034 5.35907 3.67385C5.54456 3.39014 5.73006 3.10644 5.92647 2.82273C6.09015 2.59359 6.26474 2.37535 6.43932 2.14621C6.42841 2.15712 6.4175 2.16803 6.40659 2.18985C6.91944 1.52424 7.45411 0.880449 8.01061 0.247571C8.2834 -0.0688686 8.56711 -0.374396 8.85081 -0.679924C9.14543 -0.996363 9.46187 -1.30189 9.77831 -1.59651C10.3894 -2.18574 11.0222 -2.76406 11.666 -3.32056C12.2771 -3.85523 12.91 -4.36808 13.5428 -4.87002C15.2996 -6.11395 17.111 -7.23786 19.0096 -8.21991C19.0205 -8.21991 19.0205 -8.21991 19.0096 -8.21991ZM13.1391 -4.50993L13.1282 -4.49902C13.1391 -4.49902 13.1391 -4.49902 13.1391 -4.50993Z" fill="white"/>
<path id="Vector_61" d="M64.806 3.73931C65.2098 4.53586 65.6462 5.31059 66.0609 6.09624C66.5083 6.95826 66.9011 7.84211 67.283 8.73687C67.6976 9.74074 68.0795 10.7555 68.4287 11.7921C68.6033 12.3159 68.7779 12.8397 68.9307 13.3634C69.0943 13.9308 69.2471 14.4982 69.4108 15.0657C70.0437 17.2589 70.5565 19.4958 70.862 21.7654C70.9602 22.5074 71.0366 23.2494 71.0803 24.0023C71.1348 24.8098 71.1348 25.6282 71.1021 26.4356C71.0803 27.1995 71.0366 27.9524 70.9602 28.7053C70.8839 29.48 70.7747 30.2547 70.6765 31.0295C70.6765 31.0295 70.6765 31.0295 70.6765 31.0404C70.5456 31.9788 70.3928 32.9063 70.2073 33.8338C70.4692 33.0263 70.6984 32.2079 70.9057 31.3896C71.1021 30.5712 71.2439 29.7419 71.364 28.9126C71.484 28.0506 71.5713 27.1886 71.6368 26.3265C71.7022 25.4427 71.735 24.5588 71.7568 23.675C71.8114 21.9073 71.7459 20.1396 71.5386 18.3937C71.4294 17.5099 71.2876 16.6369 71.1021 15.764C71.0148 15.3603 70.9166 14.9675 70.8075 14.5637C70.6874 14.1272 70.5456 13.7017 70.3928 13.2761C70.0764 12.3814 69.7272 11.4975 69.3344 10.6246C68.9307 9.72983 68.4833 8.86781 67.9923 8.0167C67.534 7.22014 67.032 6.44541 66.5192 5.6925C66.0281 4.98324 65.5153 4.27398 64.9261 3.6411C64.9152 3.61928 64.8933 3.60837 64.8715 3.60837C64.8279 3.61928 64.7733 3.67384 64.806 3.73931ZM70.6874 31.0404C70.6874 31.0295 70.6874 31.0295 70.6874 31.0404V31.0404Z" fill="white"/>
<path id="Vector_62" d="M67.9159 40.1189C67.6431 40.5227 67.3812 40.9373 67.0975 41.341C66.8138 41.7557 66.5083 42.1594 66.2137 42.5741C65.6026 43.4143 64.9915 44.2435 64.3587 45.0619C64.3805 45.0401 64.3914 45.0183 64.4132 44.9965C64.2386 45.2256 64.064 45.4438 63.9004 45.673C63.4093 46.3059 62.9074 46.9169 62.4164 47.5498C61.8708 48.2263 61.3361 48.9247 60.7578 49.5685C59.6448 50.8233 58.4882 52.0454 57.3533 53.2894C58.5973 52.6128 59.7321 51.7835 60.8124 50.867C61.347 50.4087 61.8708 49.9176 62.3727 49.4157C62.9183 48.8701 63.4421 48.3136 63.9222 47.7135C64.8279 46.5787 65.6462 45.3675 66.3119 44.069C66.6392 43.4361 66.9338 42.7923 67.1957 42.1376C67.4467 41.4611 67.6976 40.7955 67.9159 40.1189ZM64.315 45.1056C64.3259 45.0838 64.3368 45.0728 64.3587 45.051C64.3478 45.0728 64.3259 45.0947 64.315 45.1056Z" fill="white"/>
<path id="Vector_63" d="M5.38091 45.2365C5.17358 45.2911 4.999 45.4329 4.88988 45.6184C4.8135 45.7494 4.78076 45.8803 4.78076 46.0331C4.78076 46.1858 4.8135 46.3168 4.88988 46.4477C4.93353 46.5568 4.98808 46.666 5.04264 46.7642C5.11902 46.9278 5.24997 47.0588 5.35908 47.2006C5.5664 47.4734 5.78464 47.7353 6.01378 47.9972C6.2102 48.2263 6.41752 48.4773 6.63575 48.6846C6.76669 48.8046 6.88672 48.9138 7.00675 49.0447C7.12678 49.1647 7.24681 49.2957 7.35592 49.4157C8.29433 50.3759 9.30912 51.2707 10.3676 52.0891C10.8695 52.4819 11.3823 52.8529 11.9061 53.2239C12.4299 53.5949 12.9645 53.9331 13.4992 54.2823C14.5686 54.9807 15.6925 55.6136 16.86 56.1264C16.1617 55.6026 15.4524 55.0898 14.7541 54.566C14.1539 54.0968 13.5647 53.6276 12.9973 53.1257C12.3971 52.591 11.8079 52.0345 11.2405 51.4562C10.1384 50.3214 9.07997 49.132 8.08701 47.899C8.04336 47.8226 7.9888 47.7462 7.94516 47.6698C7.86877 47.5498 7.78148 47.4516 7.7051 47.3425C7.54142 47.1242 7.37775 46.906 7.20316 46.6878C7.03948 46.4695 6.87581 46.2513 6.71213 46.0222C6.62484 45.9021 6.54846 45.7821 6.43934 45.6839C6.35205 45.6075 6.26475 45.5311 6.17746 45.4548C6.13381 45.4111 6.07925 45.3675 6.01378 45.3238C5.88284 45.2474 5.74099 45.2147 5.59914 45.2147C5.52276 45.2038 5.44638 45.2147 5.38091 45.2365ZM14.7431 54.5333C14.7541 54.5333 14.7541 54.5442 14.765 54.5442C14.7541 54.5442 14.7431 54.5442 14.7431 54.5333Z" fill="white"/>
<path id="Vector_64" d="M-1.37345 22.3438C-1.47165 23.1294 -1.53712 23.9259 -1.55895 24.7225C-1.58077 25.5736 -1.58077 26.4356 -1.54804 27.2868C-1.5153 28.0724 -1.47165 28.8689 -1.38436 29.6546C-1.29707 30.473 -1.17704 31.2913 -1.02427 32.1097C-0.718747 33.7137 -0.260455 35.2741 0.339688 36.7908C0.928921 38.2639 1.62727 39.6824 2.50021 41.0028C2.1183 39.9662 1.73639 38.9295 1.3763 37.882C1.0053 36.7799 0.667039 35.656 0.3506 34.5321C-0.260455 32.317 -0.751482 30.0474 -1.05701 27.756C-1.05701 27.7778 -1.0461 27.7996 -1.0461 27.8214C-1.28616 25.9992 -1.34071 24.1769 -1.37345 22.3438Z" fill="white"/>
<path id="Vector_65" d="M0.710697 2.86633C0.0123482 3.78292 -0.620531 4.74315 -1.20976 5.74702C-1.78808 6.7509 -2.34458 7.76569 -2.80287 8.83504C-3.52304 10.4827 -4.12319 12.1849 -4.6033 13.9199C-5.07251 15.6439 -5.39986 17.4007 -5.60718 19.1684C-5.60718 19.1466 -5.59627 19.1248 -5.59627 19.092C-5.73812 20.1177 -5.83632 21.1434 -5.90179 22.18C-5.93453 22.7038 -5.95635 23.2276 -5.97818 23.7513C-5.98909 23.9914 -5.98909 24.2314 -6 24.4715C-6 24.7225 -6 24.9734 -5.98909 25.2244C-5.97818 26.2828 -5.91271 27.3522 -5.80359 28.4106C-5.69447 29.4036 -5.51989 30.3747 -5.3453 31.3568C-5.3453 31.4004 -5.33439 31.4441 -5.33439 31.4768C-5.33439 31.575 -5.258 31.6514 -5.1598 31.6514C-5.03977 31.6514 -4.96339 31.5423 -4.99612 31.4332C-5.00704 31.3786 -5.01795 31.3241 -5.03977 31.2804C-5.05068 31.204 -5.06159 31.1167 -5.07251 31.0404C-5.12706 30.5821 -5.17071 30.1347 -5.21436 29.6764C-5.258 29.1854 -5.29074 28.6943 -5.32347 28.2142C-5.38894 27.2213 -5.42168 26.2392 -5.43259 25.2462C-5.43259 25.028 -5.43259 24.8098 -5.43259 24.6024C-5.43259 24.3624 -5.43259 24.1223 -5.43259 23.8823C-5.43259 23.3912 -5.41077 22.9111 -5.37803 22.4201C-5.32347 21.449 -5.22527 20.4887 -5.10524 19.5285C-4.98521 18.6665 -4.81062 17.8045 -4.63604 16.9533C-4.45054 16.0695 -4.24322 15.1966 -4.00316 14.3345C-3.52304 12.5668 -2.9229 10.8319 -2.23546 9.12965C-2.06088 8.73683 -1.90811 8.3331 -1.74444 7.94028C-1.75535 7.9621 -1.76626 7.98392 -1.77717 8.00575C-1.01335 6.22714 -0.173151 4.53582 0.710697 2.86633C0.721609 2.86633 0.721609 2.86633 0.710697 2.86633ZM-2.81378 8.87868C-2.81378 8.88959 -2.82469 8.88959 -2.82469 8.90051C-2.81378 8.88959 -2.81378 8.87868 -2.81378 8.87868Z" fill="#323232"/>
<path id="Vector_66" d="M67.9486 1.34965C68.025 1.46968 68.1014 1.57879 68.1669 1.69882C68.2541 1.85158 68.3305 1.99344 68.4069 2.1462C68.5706 2.46264 68.7343 2.76817 68.8979 3.0737C69.2144 3.69566 69.5199 4.32854 69.8254 4.95051C70.4038 6.13988 70.9493 7.35108 71.4731 8.56228C71.6368 8.9551 71.8114 9.35884 71.975 9.75166C71.9532 9.70801 71.9314 9.65345 71.9096 9.60981C72.2697 10.4718 72.597 11.3339 72.9134 12.2068C73.2408 13.1016 73.5681 13.9963 73.8628 14.902C74.1683 15.8186 74.4411 16.7351 74.6811 17.6736C74.9212 18.601 75.1067 19.5395 75.2704 20.4888C75.2049 18.7975 75.0303 17.1061 74.7793 15.4367C74.5175 13.7017 74.1028 12.0104 73.5027 10.3627C73.2081 9.55525 72.9025 8.75869 72.5315 7.98396C72.1605 7.18741 71.7568 6.41268 71.3094 5.65977C70.862 4.90686 70.3819 4.17578 69.8691 3.47743C69.3671 2.78999 68.8216 2.13529 68.276 1.4915C68.2214 1.41512 68.1559 1.32782 68.0905 1.25144C68.0796 1.21871 68.0468 1.20779 68.025 1.20779C67.9704 1.22962 67.905 1.29509 67.9486 1.34965Z" fill="#323232"/>
<path id="Vector_67" d="M75.4668 26.1192C75.3467 26.6975 75.2158 27.2758 75.1067 27.8541C74.9867 28.4652 74.8666 29.0653 74.7357 29.6655C74.6047 30.2874 74.4738 30.8985 74.3647 31.5314C74.2556 32.1424 74.1028 32.7426 73.9391 33.3427C73.8628 33.6264 73.7973 33.9101 73.7318 34.2047C73.6663 34.5103 73.5791 34.8049 73.4918 35.1104C73.3281 35.7106 73.1208 36.2998 72.9134 36.8781C72.4988 38.0348 72.0296 39.1696 71.5604 40.3044C71.0039 41.6138 70.3383 42.8905 69.629 44.1126C68.9307 45.3129 68.1778 46.4695 67.3812 47.6043C67.0211 48.0626 66.6828 48.5318 66.3337 48.9901C65.8099 49.6557 65.2752 50.3104 64.7187 50.9433C64.4132 51.2816 64.0968 51.6089 63.7913 51.9363C63.4639 52.2963 63.1147 52.6455 62.7765 53.0056C62.4709 53.3221 62.1654 53.6276 61.849 53.9331C61.5325 54.2386 61.1834 54.5223 60.8451 54.806C60.1577 55.3953 59.4593 55.9627 58.75 56.5083C58.0299 57.0539 57.2879 57.5667 56.535 58.0796C55.7493 58.6142 54.9419 59.1162 54.1235 59.6072C53.3269 60.0764 52.5195 60.5347 51.6793 60.9493C50.8827 61.3422 50.0752 61.7132 49.246 62.0623C48.3948 62.4224 47.5437 62.7716 46.6708 63.0662C45.7869 63.3717 44.8922 63.6445 43.9974 63.8955C42.2188 64.3974 40.3856 64.703 38.5525 64.9539C37.9414 65.0303 37.3195 65.1067 36.6975 65.1612C36.3811 65.194 36.0646 65.2158 35.7373 65.2376C35.4536 65.2595 35.1699 65.2704 34.8861 65.3031C34.2969 65.3249 33.7186 65.3249 33.1294 65.3249C33.7186 65.3686 34.2969 65.4013 34.8861 65.4231H34.8752C35.2681 65.4777 35.6609 65.4777 36.0646 65.4886C36.5229 65.4995 36.9812 65.4995 37.4395 65.4886C38.3015 65.4777 39.1635 65.434 40.0256 65.3577C40.8767 65.2704 41.7278 65.1612 42.5789 65.0194C43.4518 64.8775 44.3248 64.7248 45.1868 64.5502C46.027 64.3756 46.8563 64.1356 47.6747 63.9173C48.5149 63.6882 49.3332 63.4154 50.1516 63.1208C50.9809 62.8152 51.7993 62.477 52.6068 62.1169C53.3924 61.7677 54.178 61.4076 54.9528 61.0148C55.7384 60.6111 56.5022 60.1746 57.2551 59.7163C57.9971 59.258 58.7064 58.7561 59.4047 58.2541C60.1467 57.7195 60.8778 57.1521 61.5762 56.5628C62.2309 56.0172 62.8528 55.428 63.4857 54.8497C64.1295 54.2714 64.7733 53.6712 65.3407 53.0274C65.9081 52.3836 66.4755 51.7289 67.0211 51.0633C67.5885 50.365 68.1341 49.6448 68.6688 48.9246C68.7779 48.7719 68.8652 48.6191 68.9634 48.4663C69.0834 48.3027 69.1925 48.1281 69.3126 47.9535C69.5635 47.5825 69.7927 47.2115 70.0327 46.8296C70.5674 45.9457 71.0803 45.051 71.5386 44.1235C71.7677 43.6543 72.0187 43.1851 72.2369 42.7159C72.4661 42.2139 72.6843 41.712 72.9025 41.2101C73.2299 40.4572 73.5354 39.6933 73.7973 38.9186C74.0483 38.1657 74.2665 37.4128 74.4629 36.649C74.6593 35.8851 74.8339 35.1104 75.0303 34.3466C75.2158 33.6264 75.3249 32.8735 75.4122 32.1315C75.4995 31.6296 75.5759 31.1276 75.6195 30.6257C75.6632 30.1019 75.685 29.5891 75.685 29.0653C75.685 28.5525 75.6741 28.0396 75.6523 27.5268C75.5977 27.0467 75.5322 26.5775 75.4668 26.1192ZM49.3223 62.0405C49.3005 62.0514 49.2896 62.0514 49.2678 62.0623C49.2787 62.0514 49.3005 62.0514 49.3223 62.0405ZM49.246 62.0732C49.2132 62.0841 49.1914 62.0951 49.1587 62.106C49.1914 62.0951 49.2241 62.0841 49.246 62.0732Z" fill="#323232"/>
<path id="Vector_68" d="M-4.3087 35.3396C-4.13412 36.147 -3.93771 36.9436 -3.73038 37.7401C-3.51215 38.5476 -3.283 39.366 -3.02112 40.1625C-2.75924 40.9373 -2.46463 41.7011 -2.14819 42.454C-1.98451 42.8359 -1.80992 43.2069 -1.64625 43.5888C-1.48257 43.9707 -1.29707 44.3526 -1.11157 44.7345C-0.926075 45.1055 -0.729665 45.4765 -0.500519 45.8257C-0.271373 46.1749 -0.0313153 46.5241 0.208742 46.8623C0.688857 47.5388 1.21262 48.2045 1.74729 48.8483C2.24923 49.4593 2.80573 50.0267 3.35131 50.5941C3.88599 51.1615 4.44248 51.7071 5.00989 52.2418C4.88986 52.0999 4.78075 51.9472 4.66072 51.8053C4.27881 51.3143 3.91872 50.8124 3.55864 50.2995C3.17673 49.7539 2.84937 49.1865 2.48929 48.63C1.7582 47.4952 1.09259 46.3277 0.4488 45.1383C0.296036 44.8655 0.13236 44.5927 -0.0313158 44.3308C-0.216815 44.0362 -0.391402 43.7307 -0.576901 43.4361C-0.936987 42.8468 -1.26434 42.2467 -1.58078 41.6465C-2.22457 40.4353 -2.82471 39.1914 -3.35938 37.9256C-3.35938 37.9366 -3.34847 37.9366 -3.34847 37.9475C-3.70856 37.0964 -4.025 36.2234 -4.3087 35.3396Z" fill="#323232"/>
</g>
</g>
</g>
<g id="Group 8">
<circle id="Ellipse 1" cx="33.9153" cy="23.9153" r="8.91525" stroke="white" stroke-width="2"/>
<path id="Vector 2" d="M45.8217 34.9467C46.2275 35.3213 46.8602 35.296 47.2348 34.8901C47.6094 34.4843 47.5841 33.8517 47.1783 33.4771L45.8217 34.9467ZM40.8641 30.3704L45.8217 34.9467L47.1783 33.4771L42.2207 28.9008L40.8641 30.3704Z" fill="white"/>
</g>
</g>
</svg>
